<svg width="28" height="28" viewBox="0 0 28 28" fill="none" xmlns="http://www.w3.org/2000/svg">
<path fill-rule="evenodd" clip-rule="evenodd" d="M13.9998 15.1239C14.6206 15.1239 15.1238 14.6207 15.1238 14C15.1238 13.3792 14.6206 12.876 13.9998 12.876C13.3791 12.876 12.8759 13.3792 12.8759 14C12.8759 14.6207 13.3791 15.1239 13.9998 15.1239ZM16.8738 14C16.8738 15.5872 15.5871 16.8739 13.9998 16.8739C12.4126 16.8739 11.1259 15.5872 11.1259 14C11.1259 12.4127 12.4126 11.126 13.9998 11.126C15.5871 11.126 16.8738 12.4127 16.8738 14Z" fill="white"/>
<path fill-rule="evenodd" clip-rule="evenodd" d="M16.4133 22.2794C15.8323 24.8514 12.1675 24.8514 11.5866 22.2794L11.454 21.6923C11.3438 21.2044 10.7839 20.9725 10.361 21.2395L9.85205 21.5609C7.62254 22.9688 5.03119 20.3774 6.43906 18.1479L6.76042 17.639C7.02748 17.2161 6.79557 16.6562 6.30768 16.546L5.7206 16.4134C3.14858 15.8324 3.14858 12.1677 5.7206 11.5867L6.30769 11.4541C6.79557 11.3439 7.02748 10.784 6.76042 10.3611L6.43906 9.85217C5.03118 7.62267 7.62255 5.03131 9.85205 6.43919L10.361 6.76054C10.7839 7.02761 11.3438 6.7957 11.454 6.30781L11.5866 5.72072C12.1676 3.1487 15.8323 3.14871 16.4133 5.72072L16.5459 6.30781C16.6561 6.79569 17.216 7.02761 17.6389 6.76054L18.1478 6.43918C20.3773 5.03131 22.9687 7.62267 21.5608 9.85217L21.2394 10.3611C20.9724 10.784 21.2043 11.3439 21.6922 11.4541L22.2792 11.5867C24.8513 12.1677 24.8513 15.8324 22.2792 16.4134L21.6922 16.546C21.2043 16.6562 20.9724 17.2161 21.2394 17.639L21.5608 18.1479C22.9687 20.3774 20.3773 22.9688 18.1478 21.5609L17.6389 21.2395C17.216 20.9725 16.6561 21.2044 16.5459 21.6923L16.4133 22.2794ZM13.2936 21.8938C13.4636 22.6466 14.5362 22.6466 14.7063 21.8938L14.8389 21.3067C15.2154 19.6398 17.1283 18.8474 18.5733 19.7599L19.0822 20.0812C19.7347 20.4933 20.4932 19.7348 20.0811 19.0823L19.7597 18.5734C18.8473 17.1284 19.6396 15.2155 21.3066 14.839L21.8937 14.7064C22.6465 14.5363 22.6464 13.4637 21.8937 13.2937L21.3066 13.1611C19.6396 12.7845 18.8473 10.8716 19.7597 9.4267L20.0811 8.9178C20.4932 8.26525 19.7347 7.50679 19.0822 7.91886L18.5733 8.24022C17.1283 9.15267 15.2154 8.36032 14.8389 6.69339L14.7063 6.10631C14.5362 5.35351 13.4636 5.35351 13.2936 6.1063L13.1609 6.69339C12.7844 8.36032 10.8715 9.15267 9.42658 8.24022L8.91768 7.91886C8.26513 7.50679 7.50667 8.26525 7.91874 8.9178L8.2401 9.4267C9.15254 10.8716 8.3602 12.7845 6.69327 13.1611L6.10618 13.2937C5.35338 13.4637 5.35339 14.5364 6.10618 14.7064L6.69327 14.839C8.3602 15.2155 9.15254 17.1284 8.2401 18.5734L7.91874 19.0823C7.50667 19.7348 8.26513 20.4933 8.91767 20.0812L9.42658 19.7599C10.8715 18.8474 12.7844 19.6398 13.1609 21.3067L13.2936 21.8938Z" fill="white"/>
</svg>
